<svg xmlns="http://www.w3.org/2000/svg"><symbol viewBox="0 0 100 100" id="check"><title>check</title> <path d="M50,1C22.938,1,1,22.938,1,50s21.938,49,49,49s49-21.938,49-49S77.062,1,50,1z M42.804,71.88l-21.83-21.83l5.716-5.716
	l16.115,16.115l28.586-28.585l5.715,5.716L42.804,71.88z"/> </symbol><symbol viewBox="0 0 100 100" id="close"><title>close</title> <polygon points="88.184,17.473 82.527,11.816 50,44.343 17.474,11.815 11.816,17.473 44.344,50 11.816,82.527 17.473,88.184 
	50,55.656 82.527,88.183 88.184,82.526 55.657,50 "/> </symbol><symbol viewBox="0 0 100 100" id="locator"><title>locator</title> <path d="M100,46h-9.568C88.547,26.782,73.218,11.453,54.001,9.566V0h-8v9.567C26.783,11.454,11.454,26.783,9.569,46H0v8h9.569
	c1.888,19.217,17.216,34.546,36.432,36.434V100h8v-9.566C73.216,88.548,88.544,73.218,90.432,54H100V46z M82.377,46H54.001V17.621
	C68.801,19.439,80.56,31.2,82.377,46z M46.001,17.622V46H17.624C19.441,31.201,31.201,19.441,46.001,17.622z M17.624,54h28.377
	v28.379C31.202,80.56,19.444,68.8,17.624,54z M54.001,82.379V54h28.376C80.557,68.801,68.799,80.561,54.001,82.379z"/> </symbol><symbol viewBox="0 0 100 100" id="phone"><title>phone</title> <g> <path d="M69,100H31c-9.9,0-18-8.1-18-18.1V18.1C13,8.1,21.1,0,31,0h38c9.9,0,18,8.1,18,18.1v63.9C87,91.9,78.9,100,69,100z M31,12
		c-3.3,0-6,2.7-6,6.1v63.9c0,3.3,2.7,6.1,6,6.1h38c3.3,0,6-2.7,6-6.1V18.1c0-3.3-2.7-6.1-6-6.1H31z"/> </g> <g> <circle cx="50" cy="75" r="8"/> </g> </symbol><symbol viewBox="0 0 100 100" id="print"><title>print</title> <g> <path d="M100,12.1C100,5.4,94.5,0,87.8,0H12.2C5.5,0,0,5.4,0,12.1V71h24v29h53V71h23V12.1z M65,88H36V48h29V88z M88,59H77V36H24v23
		H12V12.1c0-0.1,0.1-0.1,0.2-0.1h75.7c0.1,0,0.2,0.1,0.2,0.1V59z"/> <circle cx="30" cy="24" r="7"/> <rect x="40" y="53" width="21" height="6"/> <rect x="40" y="65" width="21" height="6"/> <rect x="40" y="77" width="21" height="6"/> </g> </symbol><symbol viewBox="0 0 100 100" id="search"><title>search</title> <path d="M99,89L76.2,66.3c5-7.1,7.8-15.5,7.8-24.3c0-11.2-4.4-21.8-12.3-29.7C63.8,4.4,53.2,0,42,0C30.8,0,20.2,4.4,12.3,12.3
	c-16.4,16.4-16.4,43,0,59.4C20.2,79.6,30.8,84,42,84c8.8,0,17.3-2.7,24.3-7.8L89,99L99,89z M22.2,61.8c-10.9-10.9-10.9-28.7,0-39.6
	C27.5,16.9,34.5,14,42,14c7.5,0,14.5,2.9,19.8,8.2C67.1,27.5,70,34.5,70,42c0,7.5-2.9,14.5-8.2,19.8C56.5,67.1,49.5,70,42,70
	C34.5,70,27.5,67.1,22.2,61.8z"/> </symbol></svg>